SeanSemiBold.ufo
<glyph name="exclam" format="1">
  <advance width="419"/>
  <unicode hex="0021"/>
  <outline>
    <contour>
      <point x="199" y="229" type="line"/>
      <point x="276" y="229" type="line"/>
      <point x="279" y="722" type="line"/>
      <point x="193" y="722" type="line"/>
    </contour>
    <contour>
      <point x="194" y="132" type="line"/>
      <point x="194" y="0" type="line"/>
      <point x="280" y="0" type="line"/>
      <point x="280" y="132" type="line"/>
    </contour>
  </outline>
</glyph>
<glyph name="quotedbl" format="1">
  <advance width="452"/>
  <unicode hex="0022"/>
  <outline>
    <contour>
      <point x="262" y="631" type="line"/>
      <point x="340" y="631" type="line"/>
      <point x="381" y="810" type="line"/>
      <point x="298" y="810" type="line"/>
    </contour>
    <contour>
      <point x="81" y="631" type="line"/>
      <point x="159" y="631" type="line"/>
      <point x="200" y="810" type="line"/>
      <point x="118" y="810" type="line"/>
    </contour>
  </outline>
</glyph>
<glyph name="numbersign" format="1">
  <advance width="664"/>
  <unicode hex="0023"/>
  <outline>
    <contour>
      <point x="55" y="228" type="line"/>
      <point x="141" y="231" type="line"/>
      <point x="80" y="30" type="line"/>
      <point x="145" y="30" type="line"/>
      <point x="207" y="233" type="line"/>
      <point x="355" y="239" type="line"/>
      <point x="293" y="38" type="line"/>
      <point x="357" y="38" type="line"/>
      <point x="420" y="241" type="line"/>
      <point x="503" y="244" type="line"/>
      <point x="516" y="307" type="line"/>
      <point x="439" y="304" type="line"/>
      <point x="487" y="458" type="line"/>
      <point x="574" y="461" type="line"/>
      <point x="583" y="525" type="line"/>
      <point x="507" y="522" type="line"/>
      <point x="568" y="720" type="line"/>
      <point x="503" y="720" type="line"/>
      <point x="441" y="520" type="line"/>
      <point x="292" y="515" type="line"/>
      <point x="350" y="706" type="line"/>
      <point x="286" y="706" type="line"/>
      <point x="227" y="512" type="line"/>
      <point x="138" y="509" type="line"/>
      <point x="122" y="446" type="line"/>
      <point x="208" y="449" type="line"/>
      <point x="161" y="294" type="line"/>
      <point x="71" y="291" type="line"/>
    </contour>
    <contour>
      <point x="273" y="451" type="line"/>
      <point x="422" y="456" type="line"/>
      <point x="374" y="302" type="line"/>
      <point x="226" y="297" type="line"/>
    </contour>
  </outline>
</glyph>
<glyph name="quotesingle" format="1">
  <advance width="270"/>
  <unicode hex="0027"/>
  <outline>
    <contour>
      <point x="85" y="631" type="line"/>
      <point x="163" y="631" type="line"/>
      <point x="202" y="810" type="line"/>
      <point x="124" y="810" type="line"/>
    </contour>
  </outline>
</glyph>
<glyph name="parenleft" format="1">
  <advance width="460"/>
  <unicode hex="0028"/>
  <outline>
    <contour>
      <point x="373" y="833" type="curve"/>
      <point x="309" y="883" type="line"/>
      <point x="155" y="735"/>
      <point x="66" y="534"/>
      <point x="66" y="312" type="curve" smooth="yes"/>
      <point x="66" y="96"/>
      <point x="154" y="-113"/>
      <point x="310" y="-263" type="curve"/>
      <point x="368" y="-204" type="line"/>
      <point x="228" y="-68"/>
      <point x="150" y="119"/>
      <point x="150" y="313" type="curve" smooth="yes"/>
      <point x="150" y="522"/>
      <point x="232" y="699"/>
    </contour>
  </outline>
</glyph>
<glyph name="parenright" format="1">
  <advance width="462"/>
  <unicode hex="0029"/>
  <outline>
    <contour>
      <point x="300" y="306" type="curve" smooth="yes"/>
      <point x="300" y="105"/>
      <point x="215" y="-88"/>
      <point x="66" y="-225" type="curve"/>
      <point x="127" y="-272" type="line"/>
      <point x="292" y="-123"/>
      <point x="385" y="88"/>
      <point x="385" y="309" type="curve" smooth="yes"/>
      <point x="385" y="541"/>
      <point x="290" y="741"/>
      <point x="130" y="886" type="curve"/>
      <point x="73" y="828" type="line"/>
      <point x="216" y="695"/>
      <point x="300" y="512"/>
    </contour>
  </outline>
</glyph>
<glyph name="plus" format="1">
  <advance width="758"/>
  <unicode hex="002B"/>
  <outline>
    <contour>
      <point x="100" y="270" type="line"/>
      <point x="347" y="270" type="line"/>
      <point x="346" y="17" type="line"/>
      <point x="426" y="17" type="line"/>
      <point x="426" y="269" type="line"/>
      <point x="664" y="269" type="line"/>
      <point x="664" y="347" type="line"/>
      <point x="427" y="347" type="line"/>
      <point x="427" y="563" type="line"/>
      <point x="348" y="563" type="line"/>
      <point x="347" y="347" type="line"/>
      <point x="100" y="347" type="line"/>
    </contour>
  </outline>
</glyph>
<glyph name="comma" format="1">
  <advance width="339"/>
  <unicode hex="002C"/>
  <outline>
    <contour>
      <point x="58" y="-108" type="line"/>
      <point x="127" y="-108" type="line"/>
      <point x="247" y="89" type="line"/>
      <point x="152" y="89" type="line"/>
    </contour>
  </outline>
</glyph>
<glyph name="hyphen" format="1">
  <advance width="403"/>
  <unicode hex="002D"/>
  <outline>
    <contour>
      <point x="64" y="299" type="line"/>
      <point x="64" y="222" type="line"/>
      <point x="346" y="222" type="line"/>
      <point x="346" y="299" type="line"/>
    </contour>
  </outline>
</glyph>
<glyph name="slash" format="1">
  <advance width="577"/>
  <unicode hex="002F"/>
  <outline>
    <contour>
      <point x="133" y="-65" type="line"/>
      <point x="546" y="809" type="line"/>
      <point x="460" y="809" type="line"/>
      <point x="47" y="-65" type="line"/>
    </contour>
  </outline>
</glyph>
<glyph name="zero" format="1">
  <advance width="582"/>
  <unicode hex="0030"/>
  <outline>
    <contour>
      <point x="142" y="246" type="curve" smooth="yes"/>
      <point x="142" y="344"/>
      <point x="205" y="431"/>
      <point x="296" y="431" type="curve" smooth="yes"/>
      <point x="388" y="431"/>
      <point x="447" y="346"/>
      <point x="447" y="251" type="curve" smooth="yes"/>
      <point x="447" y="149"/>
      <point x="380" y="62"/>
      <point x="292" y="62" type="curve" smooth="yes"/>
      <point x="201" y="62"/>
      <point x="142" y="149"/>
    </contour>
    <contour>
      <point x="293" y="-15" type="curve" smooth="yes"/>
      <point x="426" y="-15"/>
      <point x="533" y="101"/>
      <point x="533" y="245" type="curve" smooth="yes"/>
      <point x="533" y="386"/>
      <point x="431" y="508"/>
      <point x="295" y="508" type="curve" smooth="yes"/>
      <point x="157" y="508"/>
      <point x="55" y="387"/>
      <point x="55" y="246" type="curve" smooth="yes"/>
      <point x="55" y="101"/>
      <point x="161" y="-15"/>
    </contour>
  </outline>
</glyph>
<glyph name="one" format="1">
  <advance width="332"/>
  <unicode hex="0031"/>
  <outline>
    <contour>
      <point x="178" y="490" type="line"/>
      <point x="10" y="354" type="line"/>
      <point x="63" y="297" type="line"/>
      <point x="178" y="390" type="line"/>
      <point x="179" y="0" type="line"/>
      <point x="265" y="0" type="line"/>
      <point x="264" y="490" type="line"/>
    </contour>
  </outline>
</glyph>
<glyph name="two" format="1">
  <advance width="459"/>
  <unicode hex="0032"/>
  <outline>
    <contour>
      <point x="312" y="322" type="curve" smooth="yes"/>
      <point x="312" y="301"/>
      <point x="308" y="280"/>
      <point x="300" y="259" type="curve" smooth="yes"/>
      <point x="258" y="149"/>
      <point x="140" y="92"/>
      <point x="19" y="92" type="curve"/>
      <point x="19" y="15" type="line"/>
      <point x="451" y="15" type="line"/>
      <point x="451" y="92" type="line"/>
      <point x="224" y="92" type="line"/>
      <point x="313" y="132"/>
      <point x="388" y="212"/>
      <point x="388" y="331" type="curve" smooth="yes"/>
      <point x="388" y="430"/>
      <point x="312" y="525"/>
      <point x="193" y="525" type="curve" smooth="yes"/>
      <point x="120" y="525"/>
      <point x="54" y="482"/>
      <point x="20" y="409" type="curve"/>
      <point x="77" y="363" type="line"/>
      <point x="101" y="414"/>
      <point x="146" y="447"/>
      <point x="195" y="447" type="curve" smooth="yes"/>
      <point x="270" y="447"/>
      <point x="312" y="383"/>
    </contour>
  </outline>
</glyph>
<glyph name="three" format="1">
  <advance width="508"/>
  <unicode hex="0033"/>
  <outline>
    <contour>
      <point x="332" y="318" type="curve" smooth="yes"/>
      <point x="332" y="226"/>
      <point x="236" y="167"/>
      <point x="133" y="167" type="curve"/>
      <point x="134" y="93" type="line"/>
      <point x="223" y="93"/>
      <point x="321" y="86"/>
      <point x="352" y="8" type="curve" smooth="yes"/>
      <point x="357" y="-4"/>
      <point x="359" y="-17"/>
      <point x="359" y="-30" type="curve" smooth="yes"/>
      <point x="359" y="-112"/>
      <point x="271" y="-176"/>
      <point x="190" y="-176" type="curve" smooth="yes"/>
      <point x="152" y="-176"/>
      <point x="114" y="-164"/>
      <point x="82" y="-140" type="curve"/>
      <point x="51" y="-211" type="line"/>
      <point x="95" y="-239"/>
      <point x="144" y="-253"/>
      <point x="194" y="-253" type="curve" smooth="yes"/>
      <point x="326" y="-253"/>
      <point x="447" y="-149"/>
      <point x="447" y="-29" type="curve" smooth="yes"/>
      <point x="447" y="65"/>
      <point x="380" y="120"/>
      <point x="310" y="144" type="curve"/>
      <point x="374" y="186"/>
      <point x="416" y="250"/>
      <point x="416" y="325" type="curve" smooth="yes"/>
      <point x="416" y="439"/>
      <point x="323" y="523"/>
      <point x="201" y="523" type="curve" smooth="yes"/>
      <point x="133" y="523"/>
      <point x="68" y="493"/>
      <point x="23" y="440" type="curve"/>
      <point x="56" y="384" type="line"/>
      <point x="87" y="425"/>
      <point x="136" y="449"/>
      <point x="187" y="449" type="curve" smooth="yes"/>
      <point x="268" y="449"/>
      <point x="332" y="391"/>
    </contour>
  </outline>
</glyph>
<glyph name="four" format="1">
  <advance width="617"/>
  <unicode hex="0034"/>
  <outline>
    <contour>
      <point x="109" y="118" type="line"/>
      <point x="367" y="432" type="line"/>
      <point x="365" y="118" type="line"/>
    </contour>
    <contour>
      <point x="22" y="118" type="line"/>
      <point x="22" y="44" type="line"/>
      <point x="365" y="44" type="line"/>
      <point x="364" y="-222" type="line"/>
      <point x="451" y="-222" type="line"/>
      <point x="452" y="44" type="line"/>
      <point x="599" y="44" type="line"/>
      <point x="599" y="118" type="line"/>
      <point x="452" y="118" type="line"/>
      <point x="454" y="527" type="line"/>
      <point x="367" y="527" type="line"/>
    </contour>
  </outline>
</glyph>
<glyph name="five" format="1">
  <advance width="521"/>
  <unicode hex="0035"/>
  <outline>
    <contour>
      <point x="217" y="310" type="curve" smooth="yes"/>
      <point x="202" y="310"/>
      <point x="187" y="308"/>
      <point x="172" y="306" type="curve"/>
      <point x="173" y="460" type="line"/>
      <point x="436" y="460" type="line"/>
      <point x="436" y="534" type="line"/>
      <point x="92" y="534" type="line"/>
      <point x="90" y="281" type="line"/>
      <point x="90" y="203" type="line"/>
      <point x="127" y="224"/>
      <point x="165" y="234"/>
      <point x="200" y="234" type="curve" smooth="yes"/>
      <point x="299" y="234"/>
      <point x="384" y="153"/>
      <point x="384" y="25" type="curve" smooth="yes"/>
      <point x="384" y="-86"/>
      <point x="307" y="-160"/>
      <point x="213" y="-160" type="curve" smooth="yes"/>
      <point x="179" y="-160"/>
      <point x="144" y="-151"/>
      <point x="108" y="-130" type="curve"/>
      <point x="70" y="-198" type="line"/>
      <point x="122" y="-228"/>
      <point x="175" y="-242"/>
      <point x="224" y="-242" type="curve" smooth="yes"/>
      <point x="360" y="-242"/>
      <point x="470" y="-136"/>
      <point x="470" y="20" type="curve" smooth="yes"/>
      <point x="470" y="197"/>
      <point x="356" y="310"/>
    </contour>
  </outline>
</glyph>
<glyph name="six" format="1">
  <advance width="597"/>
  <unicode hex="0036"/>
  <outline>
    <contour>
      <point x="309" y="-8" type="curve" smooth="yes"/>
      <point x="430" y="-8"/>
      <point x="530" y="83"/>
      <point x="530" y="193" type="curve" smooth="yes"/>
      <point x="530" y="311"/>
      <point x="431" y="383"/>
      <point x="311" y="383" type="curve" smooth="yes"/>
      <point x="255" y="383"/>
      <point x="202" y="365"/>
      <point x="157" y="332" type="curve"/>
      <point x="177" y="396"/>
      <point x="220" y="455"/>
      <point x="272" y="504" type="curve" smooth="yes"/>
      <point x="348" y="575"/>
      <point x="438" y="629"/>
      <point x="537" y="661" type="curve"/>
      <point x="509" y="733" type="line"/>
      <point x="387" y="694"/>
      <point x="278" y="625"/>
      <point x="191" y="533" type="curve" smooth="yes"/>
      <point x="116" y="455"/>
      <point x="59" y="358"/>
      <point x="59" y="254" type="curve" smooth="yes"/>
      <point x="59" y="109"/>
      <point x="166" y="-8"/>
    </contour>
    <contour>
      <point x="321" y="63" type="curve" smooth="yes"/>
      <point x="226" y="63"/>
      <point x="148" y="144"/>
      <point x="145" y="252" type="curve"/>
      <point x="183" y="293"/>
      <point x="237" y="316"/>
      <point x="293" y="316" type="curve" smooth="yes"/>
      <point x="381" y="316"/>
      <point x="453" y="262"/>
      <point x="455" y="186" type="curve" smooth="yes"/>
      <point x="456" y="117"/>
      <point x="396" y="63"/>
    </contour>
  </outline>
</glyph>
<glyph name="seven" format="1">
  <advance width="576"/>
  <unicode hex="0037"/>
  <outline>
    <contour>
      <point x="80" y="502" type="line"/>
      <point x="80" y="425" type="line"/>
      <point x="436" y="424" type="line"/>
      <point x="89" y="-222" type="line"/>
      <point x="175" y="-222" type="line"/>
      <point x="530" y="424" type="line"/>
      <point x="530" y="502" type="line"/>
    </contour>
  </outline>
</glyph>
<glyph name="eight" format="1">
  <advance width="585"/>
  <unicode hex="0038"/>
  <outline>
    <contour>
      <point x="293" y="603" type="curve" smooth="yes"/>
      <point x="355" y="603"/>
      <point x="414" y="569"/>
      <point x="414" y="504" type="curve" smooth="yes"/>
      <point x="414" y="450"/>
      <point x="365" y="410"/>
      <point x="309" y="379" type="curve"/>
      <point x="243" y="412"/>
      <point x="183" y="454"/>
      <point x="183" y="511" type="curve" smooth="yes"/>
      <point x="183" y="573"/>
      <point x="239" y="603"/>
    </contour>
    <contour>
      <point x="294" y="-31" type="curve" smooth="yes"/>
      <point x="410" y="-31"/>
      <point x="512" y="51"/>
      <point x="512" y="159" type="curve" smooth="yes"/>
      <point x="512" y="245"/>
      <point x="453" y="301"/>
      <point x="384" y="341" type="curve"/>
      <point x="448" y="380"/>
      <point x="498" y="437"/>
      <point x="498" y="508" type="curve" smooth="yes"/>
      <point x="498" y="610"/>
      <point x="406" y="680"/>
      <point x="299" y="680" type="curve" smooth="yes"/>
      <point x="198" y="680"/>
      <point x="104" y="613"/>
      <point x="104" y="512" type="curve" smooth="yes"/>
      <point x="104" y="436"/>
      <point x="159" y="378"/>
      <point x="228" y="336" type="curve"/>
      <point x="153" y="291"/>
      <point x="89" y="232"/>
      <point x="89" y="148" type="curve" smooth="yes"/>
      <point x="89" y="45"/>
      <point x="185" y="-31"/>
    </contour>
    <contour>
      <point x="311" y="44" type="curve" smooth="yes"/>
      <point x="239" y="44"/>
      <point x="174" y="92"/>
      <point x="174" y="161" type="curve" smooth="yes"/>
      <point x="174" y="223"/>
      <point x="235" y="264"/>
      <point x="300" y="298" type="curve"/>
      <point x="370" y="263"/>
      <point x="437" y="218"/>
      <point x="437" y="151" type="curve" smooth="yes"/>
      <point x="437" y="82"/>
      <point x="375" y="44"/>
    </contour>
  </outline>
</glyph>
<glyph name="nine" format="1">
  <advance width="603"/>
  <unicode hex="0039"/>
  <outline>
    <contour>
      <point x="298" y="495" type="curve" smooth="yes"/>
      <point x="179" y="495"/>
      <point x="82" y="401"/>
      <point x="82" y="287" type="curve" smooth="yes"/>
      <point x="82" y="166"/>
      <point x="176" y="87"/>
      <point x="297" y="87" type="curve" smooth="yes"/>
      <point x="344" y="87"/>
      <point x="389" y="101"/>
      <point x="427" y="125" type="curve"/>
      <point x="367" y="-8"/>
      <point x="230" y="-110"/>
      <point x="91" y="-154" type="curve"/>
      <point x="119" y="-227" type="line"/>
      <point x="223" y="-195"/>
      <point x="317" y="-140"/>
      <point x="395" y="-64" type="curve" smooth="yes"/>
      <point x="476" y="16"/>
      <point x="537" y="117"/>
      <point x="537" y="230" type="curve" smooth="yes"/>
      <point x="537" y="366"/>
      <point x="447" y="495"/>
    </contour>
    <contour>
      <point x="157" y="299" type="curve" smooth="yes"/>
      <point x="157" y="370"/>
      <point x="214" y="428"/>
      <point x="290" y="428" type="curve" smooth="yes"/>
      <point x="382" y="428"/>
      <point x="452" y="341"/>
      <point x="452" y="237" type="curve" smooth="yes"/>
      <point x="452" y="228" type="line"/>
      <point x="419" y="185"/>
      <point x="367" y="159"/>
      <point x="312" y="159" type="curve" smooth="yes"/>
      <point x="226" y="159"/>
      <point x="157" y="219"/>
    </contour>
  </outline>
</glyph>
<glyph name="semicolon" format="1">
  <advance width="339"/>
  <unicode hex="003B"/>
  <outline>
    <contour>
      <point x="149" y="327" type="line"/>
      <point x="236" y="327" type="line"/>
      <point x="236" y="465" type="line"/>
      <point x="149" y="465" type="line"/>
    </contour>
    <contour>
      <point x="54" y="-91" type="line"/>
      <point x="131" y="-91" type="line"/>
      <point x="245" y="89" type="line"/>
      <point x="154" y="89" type="line"/>
    </contour>
  </outline>
</glyph>
<glyph name="less" format="1">
  <advance width="821"/>
  <unicode hex="003C"/>
  <outline>
    <contour>
      <point x="212" y="288" type="line"/>
      <point x="701" y="503" type="line"/>
      <point x="701" y="589" type="line"/>
      <point x="111" y="331" type="line"/>
      <point x="111" y="244" type="line"/>
      <point x="711" y="-8" type="line"/>
      <point x="711" y="78" type="line"/>
    </contour>
  </outline>
</glyph>
<glyph name="equal" format="1">
  <advance width="842"/>
  <unicode hex="003D"/>
  <outline>
    <contour>
      <point x="114" y="247" type="line"/>
      <point x="114" y="169" type="line"/>
      <point x="724" y="169" type="line"/>
      <point x="724" y="247" type="line"/>
    </contour>
    <contour>
      <point x="114" y="460" type="line"/>
      <point x="114" y="383" type="line"/>
      <point x="724" y="383" type="line"/>
      <point x="724" y="460" type="line"/>
    </contour>
  </outline>
</glyph>
<glyph name="greater" format="1">
  <advance width="821"/>
  <unicode hex="003E"/>
  <outline>
    <contour>
      <point x="128" y="-8" type="line"/>
      <point x="719" y="245" type="line"/>
      <point x="719" y="332" type="line"/>
      <point x="114" y="589" type="line"/>
      <point x="114" y="503" type="line"/>
      <point x="617" y="288" type="line"/>
      <point x="128" y="78" type="line"/>
    </contour>
  </outline>
</glyph>
<glyph name="question" format="1">
  <advance width="560"/>
  <unicode hex="003F"/>
  <outline>
    <contour>
      <point x="224" y="384" type="curve"/>
      <point x="224" y="226" type="line"/>
      <point x="310" y="226" type="line"/>
      <point x="311" y="299" type="line"/>
      <point x="408" y="311"/>
      <point x="495" y="390"/>
      <point x="495" y="511" type="curve" smooth="yes"/>
      <point x="495" y="636"/>
      <point x="391" y="736"/>
      <point x="269" y="736" type="curve" smooth="yes"/>
      <point x="243" y="736"/>
      <point x="217" y="732"/>
      <point x="190" y="722" type="curve"/>
      <point x="204" y="646" type="line"/>
      <point x="226" y="657"/>
      <point x="248" y="662"/>
      <point x="270" y="662" type="curve" smooth="yes"/>
      <point x="346" y="662"/>
      <point x="416" y="601"/>
      <point x="416" y="516" type="curve" smooth="yes"/>
      <point x="416" y="435"/>
      <point x="349" y="375"/>
      <point x="274" y="375" type="curve" smooth="yes"/>
      <point x="258" y="375"/>
      <point x="241" y="378"/>
    </contour>
    <contour>
      <point x="314" y="-10" type="line"/>
      <point x="314" y="131" type="line"/>
      <point x="218" y="131" type="line"/>
      <point x="218" y="-10" type="line"/>
    </contour>
  </outline>
</glyph>
<glyph name="at" format="1">
  <advance width="851"/>
  <unicode hex="0040"/>
  <outline>
    <contour>
      <point x="447" y="-91" type="curve" smooth="yes"/>
      <point x="273" y="-91"/>
      <point x="126" y="42"/>
      <point x="127" y="212" type="curve" smooth="yes"/>
      <point x="127" y="379"/>
      <point x="267" y="510"/>
      <point x="436" y="510" type="curve" smooth="yes"/>
      <point x="595" y="510"/>
      <point x="728" y="395"/>
      <point x="728" y="244" type="curve" smooth="yes"/>
      <point x="728" y="150"/>
      <point x="674" y="88"/>
      <point x="626" y="88" type="curve" smooth="yes"/>
      <point x="594" y="88"/>
      <point x="572" y="115"/>
      <point x="572" y="148" type="curve" smooth="yes"/>
      <point x="572" y="196"/>
      <point x="597" y="238"/>
      <point x="597" y="283" type="curve" smooth="yes"/>
      <point x="597" y="364"/>
      <point x="524" y="411"/>
      <point x="441" y="411" type="curve" smooth="yes"/>
      <point x="330" y="411"/>
      <point x="240" y="322"/>
      <point x="240" y="215" type="curve" smooth="yes"/>
      <point x="240" y="115"/>
      <point x="309" y="40"/>
      <point x="411" y="40" type="curve" smooth="yes"/>
      <point x="451" y="40"/>
      <point x="489" y="54"/>
      <point x="520" y="79" type="curve"/>
      <point x="538" y="50"/>
      <point x="579" y="25"/>
      <point x="621" y="25" type="curve" smooth="yes"/>
      <point x="710" y="25"/>
      <point x="797" y="122"/>
      <point x="797" y="250" type="curve" smooth="yes"/>
      <point x="797" y="431"/>
      <point x="639" y="574"/>
      <point x="441" y="574" type="curve" smooth="yes"/>
      <point x="234" y="574"/>
      <point x="59" y="413"/>
      <point x="59" y="208" type="curve" smooth="yes"/>
      <point x="59" y="3"/>
      <point x="233" y="-158"/>
      <point x="445" y="-158" type="curve" smooth="yes"/>
      <point x="544" y="-158"/>
      <point x="640" y="-121"/>
      <point x="713" y="-53" type="curve"/>
      <point x="667" y="-2" type="line"/>
      <point x="608" y="-59"/>
      <point x="529" y="-91"/>
    </contour>
    <contour>
      <point x="309" y="213" type="curve" smooth="yes"/>
      <point x="309" y="285"/>
      <point x="369" y="346"/>
      <point x="444" y="346" type="curve" smooth="yes"/>
      <point x="469" y="346"/>
      <point x="526" y="330"/>
      <point x="526" y="299" type="curve" smooth="yes"/>
      <point x="526" y="291"/>
      <point x="507" y="197"/>
      <point x="503" y="152" type="curve"/>
      <point x="488" y="118"/>
      <point x="454" y="96"/>
      <point x="416" y="96" type="curve" smooth="yes"/>
      <point x="355" y="96"/>
      <point x="309" y="146"/>
    </contour>
  </outline>
</glyph>
<glyph name="A" format="1">
  <advance width="762"/>
  <unicode hex="0041"/>
  <outline>
    <contour>
      <point x="56" y="0" type="line"/>
      <point x="143" y="0" type="line"/>
      <point x="233" y="212" type="line"/>
      <point x="542" y="213" type="line"/>
      <point x="609" y="1" type="line"/>
      <point x="696" y="1" type="line"/>
      <point x="459" y="721" type="line"/>
      <point x="371" y="721" type="line"/>
    </contour>
    <contour>
      <point x="519" y="286" type="line"/>
      <point x="264" y="286" type="line"/>
      <point x="410" y="629" type="line"/>
    </contour>
  </outline>
</glyph>
<glyph name="B" format="1">
  <advance width="592"/>
  <unicode hex="0042"/>
  <outline>
    <contour>
      <point x="257" y="722" type="curve" smooth="yes"/>
      <point x="87" y="722" type="line"/>
      <point x="87" y="0" type="line"/>
      <point x="261" y="0" type="line" smooth="yes"/>
      <point x="411" y="0"/>
      <point x="530" y="75"/>
      <point x="530" y="215" type="curve" smooth="yes"/>
      <point x="530" y="304"/>
      <point x="481" y="368"/>
      <point x="406" y="402" type="curve"/>
      <point x="457" y="432"/>
      <point x="489" y="480"/>
      <point x="489" y="542" type="curve" smooth="yes"/>
      <point x="489" y="670"/>
      <point x="382" y="722"/>
    </contour>
    <contour>
      <point x="261" y="73" type="curve" smooth="yes"/>
      <point x="174" y="73" type="line"/>
      <point x="174" y="366" type="line"/>
      <point x="259" y="366" type="line" smooth="yes"/>
      <point x="362" y="366"/>
      <point x="443" y="313"/>
      <point x="443" y="220" type="curve" smooth="yes"/>
      <point x="443" y="121"/>
      <point x="362" y="73"/>
    </contour>
    <contour>
      <point x="403" y="545" type="curve" smooth="yes"/>
      <point x="403" y="475"/>
      <point x="339" y="439"/>
      <point x="259" y="439" type="curve" smooth="yes"/>
      <point x="174" y="439" type="line"/>
      <point x="174" y="649" type="line"/>
      <point x="257" y="649" type="line" smooth="yes"/>
      <point x="334" y="649"/>
      <point x="403" y="620"/>
    </contour>
  </outline>
</glyph>
<glyph name="C" format="1">
  <advance width="642"/>
  <unicode hex="0043"/>
  <outline>
    <contour>
      <point x="392" y="72" type="curve" smooth="yes"/>
      <point x="245" y="72"/>
      <point x="154" y="185"/>
      <point x="154" y="350" type="curve" smooth="yes"/>
      <point x="154" y="531"/>
      <point x="241" y="650"/>
      <point x="407" y="650" type="curve" smooth="yes"/>
      <point x="473" y="649"/>
      <point x="536" y="628"/>
      <point x="589" y="589" type="curve"/>
      <point x="623" y="662" type="line"/>
      <point x="556" y="706"/>
      <point x="486" y="731"/>
      <point x="391" y="731" type="curve" smooth="yes"/>
      <point x="190" y="731"/>
      <point x="66" y="580"/>
      <point x="66" y="352" type="curve" smooth="yes"/>
      <point x="66" y="138"/>
      <point x="182" y="-7"/>
      <point x="383" y="-7" type="curve" smooth="yes"/>
      <point x="477" y="-7"/>
      <point x="556" y="22"/>
      <point x="624" y="73" type="curve"/>
      <point x="588" y="147" type="line"/>
      <point x="536" y="101"/>
      <point x="474" y="72"/>
    </contour>
  </outline>
</glyph>
<glyph name="D" format="1">
  <advance width="700"/>
  <unicode hex="0044"/>
  <outline>
    <contour>
      <point x="279" y="722" type="curve" smooth="yes"/>
      <point x="71" y="722" type="line"/>
      <point x="71" y="0" type="line"/>
      <point x="157" y="0" type="line" smooth="yes"/>
      <point x="211" y="1"/>
      <point x="265" y="3"/>
      <point x="320" y="3" type="curve" smooth="yes"/>
      <point x="529" y="3"/>
      <point x="648" y="135"/>
      <point x="648" y="340" type="curve" smooth="yes"/>
      <point x="648" y="593"/>
      <point x="518" y="722"/>
    </contour>
    <contour>
      <point x="157" y="78" type="curve"/>
      <point x="157" y="645" type="line"/>
      <point x="292" y="645" type="line" smooth="yes"/>
      <point x="469" y="645"/>
      <point x="561" y="545"/>
      <point x="561" y="365" type="curve" smooth="yes"/>
      <point x="561" y="187"/>
      <point x="467" y="76"/>
      <point x="293" y="76" type="curve" smooth="yes"/>
      <point x="248" y="76"/>
      <point x="202" y="77"/>
    </contour>
  </outline>
</glyph>
<glyph name="E" format="1">
  <advance width="549"/>
  <unicode hex="0045"/>
  <outline>
    <contour>
      <point x="87" y="0" type="line"/>
      <point x="500" y="0" type="line"/>
      <point x="500" y="78" type="line"/>
      <point x="174" y="78" type="line"/>
      <point x="174" y="335" type="line"/>
      <point x="401" y="335" type="line"/>
      <point x="401" y="412" type="line"/>
      <point x="174" y="412" type="line"/>
      <point x="174" y="645" type="line"/>
      <point x="471" y="645" type="line"/>
      <point x="471" y="722" type="line"/>
      <point x="87" y="722" type="line"/>
    </contour>
  </outline>
</glyph>
<glyph name="F" format="1">
  <advance width="517"/>
  <unicode hex="0046"/>
  <outline>
    <contour>
      <point x="87" y="0" type="line"/>
      <point x="174" y="0" type="line"/>
      <point x="174" y="335" type="line"/>
      <point x="413" y="335" type="line"/>
      <point x="413" y="412" type="line"/>
      <point x="174" y="412" type="line"/>
      <point x="174" y="645" type="line"/>
      <point x="474" y="645" type="line"/>
      <point x="474" y="722" type="line"/>
      <point x="87" y="722" type="line"/>
    </contour>
  </outline>
</glyph>
<glyph name="G" format="1">
  <advance width="781"/>
  <unicode hex="0047"/>
  <outline>
    <contour>
      <point x="442" y="73" type="curve" smooth="yes"/>
      <point x="268" y="73"/>
      <point x="159" y="181"/>
      <point x="159" y="365" type="curve" smooth="yes"/>
      <point x="159" y="541"/>
      <point x="263" y="647"/>
      <point x="432" y="647" type="curve" smooth="yes"/>
      <point x="522" y="647"/>
      <point x="595" y="625"/>
      <point x="665" y="583" type="curve"/>
      <point x="683" y="659" type="line"/>
      <point x="603" y="704"/>
      <point x="522" y="731"/>
      <point x="415" y="731" type="curve" smooth="yes"/>
      <point x="204" y="731"/>
      <point x="73" y="592"/>
      <point x="73" y="367" type="curve" smooth="yes"/>
      <point x="73" y="133"/>
      <point x="199" y="-6"/>
      <point x="421" y="-6" type="curve" smooth="yes"/>
      <point x="530" y="-6"/>
      <point x="626" y="24"/>
      <point x="713" y="78" type="curve"/>
      <point x="713" y="344" type="line"/>
      <point x="483" y="344" type="line"/>
      <point x="483" y="271" type="line"/>
      <point x="636" y="271" type="line"/>
      <point x="637" y="114" type="line"/>
      <point x="576" y="86"/>
      <point x="515" y="73"/>
    </contour>
  </outline>
</glyph>
<glyph name="H" format="1">
  <advance width="779"/>
  <unicode hex="0048"/>
  <outline>
    <contour>
      <point x="610" y="722" type="line"/>
      <point x="610" y="403" type="line"/>
      <point x="174" y="403" type="line"/>
      <point x="174" y="722" type="line"/>
      <point x="88" y="722" type="line"/>
      <point x="87" y="0" type="line"/>
      <point x="174" y="0" type="line"/>
      <point x="174" y="321" type="line"/>
      <point x="610" y="321" type="line"/>
      <point x="610" y="0" type="line"/>
      <point x="696" y="0" type="line"/>
      <point x="696" y="722" type="line"/>
    </contour>
  </outline>
</glyph>
<glyph name="I" format="1">
  <advance width="257"/>
  <unicode hex="0049"/>
  <outline>
    <contour>
      <point x="87" y="0" type="line"/>
      <point x="174" y="0" type="line"/>
      <point x="174" y="722" type="line"/>
      <point x="88" y="722" type="line"/>
    </contour>
  </outline>
</glyph>
<glyph name="J" format="1">
  <advance width="317"/>
  <unicode hex="004A"/>
  <outline>
    <contour>
      <point x="233" y="0" type="curve" smooth="yes"/>
      <point x="234" y="722" type="line"/>
      <point x="147" y="722" type="line"/>
      <point x="147" y="0" type="line" smooth="yes"/>
      <point x="147" y="-68"/>
      <point x="123" y="-154"/>
      <point x="42" y="-154" type="curve" smooth="yes"/>
      <point x="17" y="-154"/>
      <point x="-7" y="-144"/>
      <point x="-24" y="-125" type="curve"/>
      <point x="-64" y="-192" type="line"/>
      <point x="-35" y="-217"/>
      <point x="0" y="-231"/>
      <point x="38" y="-231" type="curve" smooth="yes"/>
      <point x="159" y="-231"/>
      <point x="233" y="-117"/>
    </contour>
  </outline>
</glyph>
<glyph name="K" format="1">
  <advance width="667"/>
  <unicode hex="004B"/>
  <outline>
    <contour>
      <point x="87" y="0" type="line"/>
      <point x="174" y="0" type="line"/>
      <point x="174" y="330" type="line"/>
      <point x="531" y="0" type="line"/>
      <point x="627" y="0" type="line"/>
      <point x="234" y="380" type="line"/>
      <point x="595" y="722" type="line"/>
      <point x="500" y="722" type="line"/>
      <point x="174" y="411" type="line"/>
      <point x="174" y="722" type="line"/>
      <point x="87" y="722" type="line"/>
    </contour>
  </outline>
</glyph>
<glyph name="L" format="1">
  <advance width="571"/>
  <unicode hex="004C"/>
  <outline>
    <contour>
      <point x="87" y="0" type="line"/>
      <point x="538" y="0" type="line"/>
      <point x="538" y="78" type="line"/>
      <point x="174" y="78" type="line"/>
      <point x="174" y="722" type="line"/>
      <point x="87" y="722" type="line"/>
    </contour>
  </outline>
</glyph>
<glyph name="M" format="1">
  <advance width="877"/>
  <unicode hex="004D"/>
  <outline>
    <contour>
      <point x="674" y="542" type="line"/>
      <point x="722" y="0" type="line"/>
      <point x="808" y="0" type="line"/>
      <point x="743" y="722" type="line"/>
      <point x="700" y="722" type="line"/>
      <point x="656" y="723" type="line"/>
      <point x="417" y="96" type="line"/>
      <point x="194" y="722" type="line"/>
      <point x="108" y="722" type="line"/>
      <point x="54" y="0" type="line"/>
      <point x="140" y="0" type="line"/>
      <point x="179" y="535" type="line"/>
      <point x="380" y="0" type="line"/>
      <point x="465" y="0" type="line"/>
    </contour>
  </outline>
</glyph>
<glyph name="N" format="1">
  <advance width="769"/>
  <unicode hex="004E"/>
  <outline>
    <contour>
      <point x="87" y="0" type="line"/>
      <point x="174" y="0" type="line"/>
      <point x="174" y="597" type="line"/>
      <point x="610" y="0" type="line"/>
      <point x="697" y="0" type="line"/>
      <point x="697" y="722" type="line"/>
      <point x="610" y="722" type="line"/>
      <point x="610" y="125" type="line"/>
      <point x="174" y="722" type="line"/>
      <point x="87" y="722" type="line"/>
    </contour>
  </outline>
</glyph>
<glyph name="O" format="1">
  <advance width="760"/>
  <unicode hex="004F"/>
  <outline>
    <contour>
      <point x="381" y="647" type="curve" smooth="yes"/>
      <point x="526" y="647"/>
      <point x="619" y="517"/>
      <point x="619" y="361" type="curve" smooth="yes"/>
      <point x="619" y="207"/>
      <point x="536" y="74"/>
      <point x="384" y="74" type="curve" smooth="yes"/>
      <point x="241" y="74"/>
      <point x="145" y="202"/>
      <point x="145" y="359" type="curve" smooth="yes"/>
      <point x="145" y="516"/>
      <point x="234" y="647"/>
    </contour>
    <contour>
      <point x="381" y="-6" type="curve" smooth="yes"/>
      <point x="576" y="-6"/>
      <point x="706" y="159"/>
      <point x="706" y="362" type="curve" smooth="yes"/>
      <point x="706" y="563"/>
      <point x="581" y="728"/>
      <point x="384" y="728" type="curve" smooth="yes"/>
      <point x="192" y="728"/>
      <point x="59" y="565"/>
      <point x="59" y="361" type="curve" smooth="yes"/>
      <point x="59" y="160"/>
      <point x="186" y="-6"/>
    </contour>
  </outline>
</glyph>
<glyph name="P" format="1">
  <advance width="562"/>
  <unicode hex="0050"/>
  <outline>
    <contour>
      <point x="283" y="260" type="curve" smooth="yes"/>
      <point x="424" y="260"/>
      <point x="527" y="353"/>
      <point x="527" y="481" type="curve" smooth="yes"/>
      <point x="527" y="644"/>
      <point x="403" y="722"/>
      <point x="256" y="722" type="curve" smooth="yes"/>
      <point x="87" y="722" type="line"/>
      <point x="87" y="0" type="line"/>
      <point x="174" y="0" type="line"/>
      <point x="174" y="279" type="line"/>
      <point x="209" y="267"/>
      <point x="242" y="260"/>
    </contour>
    <contour>
      <point x="442" y="477" type="curve" smooth="yes"/>
      <point x="442" y="394"/>
      <point x="377" y="329"/>
      <point x="277" y="329" type="curve" smooth="yes"/>
      <point x="241" y="329"/>
      <point x="205" y="339"/>
      <point x="174" y="356" type="curve"/>
      <point x="174" y="645" type="line"/>
      <point x="256" y="645" type="line" smooth="yes"/>
      <point x="356" y="645"/>
      <point x="442" y="589"/>
    </contour>
  </outline>
</glyph>
<glyph name="Q" format="1">
  <advance width="765"/>
  <unicode hex="0051"/>
  <outline>
    <contour>
      <point x="451" y="1" type="curve"/>
      <point x="608" y="35"/>
      <point x="717" y="188"/>
      <point x="717" y="361" type="curve" smooth="yes"/>
      <point x="717" y="560"/>
      <point x="574" y="728"/>
      <point x="385" y="728" type="curve" smooth="yes"/>
      <point x="194" y="728"/>
      <point x="52" y="557"/>
      <point x="52" y="360" type="curve" smooth="yes"/>
      <point x="52" y="169"/>
      <point x="186" y="9"/>
      <point x="362" y="-5" type="curve"/>
      <point x="442" y="-127"/>
      <point x="594" y="-231"/>
      <point x="774" y="-237" type="curve"/>
      <point x="774" y="-160" type="line"/>
      <point x="636" y="-154"/>
      <point x="522" y="-84"/>
    </contour>
    <contour>
      <point x="380" y="646" type="curve" smooth="yes"/>
      <point x="524" y="646"/>
      <point x="630" y="509"/>
      <point x="630" y="354" type="curve" smooth="yes"/>
      <point x="630" y="211"/>
      <point x="537" y="76"/>
      <point x="390" y="76" type="curve" smooth="yes"/>
      <point x="247" y="76"/>
      <point x="139" y="211"/>
      <point x="139" y="366" type="curve" smooth="yes"/>
      <point x="139" y="512"/>
      <point x="235" y="646"/>
    </contour>
  </outline>
</glyph>
<glyph name="R" format="1">
  <advance width="685"/>
  <unicode hex="0052"/>
  <outline>
    <contour>
      <point x="294" y="722" type="curve" smooth="yes"/>
      <point x="107" y="722" type="line"/>
      <point x="107" y="0" type="line"/>
      <point x="193" y="0" type="line"/>
      <point x="193" y="313" type="line"/>
      <point x="268" y="313" type="line" smooth="yes"/>
      <point x="291" y="313"/>
      <point x="313" y="315"/>
      <point x="334" y="317" type="curve"/>
      <point x="588" y="0" type="line"/>
      <point x="681" y="0" type="line"/>
      <point x="418" y="334" type="line"/>
      <point x="507" y="362"/>
      <point x="565" y="418"/>
      <point x="565" y="501" type="curve" smooth="yes"/>
      <point x="565" y="648"/>
      <point x="427" y="722"/>
    </contour>
    <contour>
      <point x="478" y="505" type="curve" smooth="yes"/>
      <point x="478" y="423"/>
      <point x="385" y="387"/>
      <point x="268" y="387" type="curve" smooth="yes"/>
      <point x="193" y="387" type="line"/>
      <point x="193" y="645" type="line"/>
      <point x="294" y="645" type="line" smooth="yes"/>
      <point x="382" y="645"/>
      <point x="478" y="602"/>
    </contour>
  </outline>
</glyph>
<glyph name="S" format="1">
  <advance width="584"/>
  <unicode hex="0053"/>
  <outline>
    <contour>
      <point x="455" y="605" type="curve"/>
      <point x="485" y="679" type="line"/>
      <point x="425" y="710"/>
      <point x="361" y="731"/>
      <point x="282" y="731" type="curve" smooth="yes"/>
      <point x="163" y="731"/>
      <point x="73" y="664"/>
      <point x="73" y="564" type="curve" smooth="yes"/>
      <point x="73" y="444"/>
      <point x="177" y="390"/>
      <point x="269" y="347" type="curve" smooth="yes"/>
      <point x="348" y="310"/>
      <point x="432" y="261"/>
      <point x="432" y="181" type="curve" smooth="yes"/>
      <point x="432" y="104"/>
      <point x="366" y="73"/>
      <point x="288" y="73" type="curve" smooth="yes"/>
      <point x="217" y="73"/>
      <point x="149" y="89"/>
      <point x="84" y="116" type="curve"/>
      <point x="57" y="39" type="line"/>
      <point x="127" y="11"/>
      <point x="199" y="-6"/>
      <point x="279" y="-6" type="curve" smooth="yes"/>
      <point x="414" y="-6"/>
      <point x="520" y="63"/>
      <point x="520" y="177" type="curve" smooth="yes"/>
      <point x="520" y="295"/>
      <point x="423" y="362"/>
      <point x="328" y="406" type="curve" smooth="yes"/>
      <point x="252" y="442"/>
      <point x="163" y="483"/>
      <point x="163" y="557" type="curve" smooth="yes"/>
      <point x="163" y="620"/>
      <point x="216" y="650"/>
      <point x="282" y="650" type="curve" smooth="yes"/>
      <point x="347" y="650"/>
      <point x="403" y="632"/>
    </contour>
  </outline>
</glyph>
<glyph name="T" format="1">
  <advance width="624"/>
  <unicode hex="0054"/>
  <outline>
    <contour>
      <point x="8" y="650" type="line"/>
      <point x="255" y="650" type="line"/>
      <point x="255" y="0" type="line"/>
      <point x="341" y="0" type="line"/>
      <point x="341" y="650" type="line"/>
      <point x="620" y="650" type="line"/>
      <point x="620" y="728" type="line"/>
      <point x="8" y="728" type="line"/>
    </contour>
  </outline>
</glyph>
<glyph name="U" format="1">
  <advance width="707"/>
  <unicode hex="0055"/>
  <outline>
    <contour>
      <point x="78" y="722" type="line"/>
      <point x="78" y="304" type="line" smooth="yes"/>
      <point x="78" y="118"/>
      <point x="178" y="-6"/>
      <point x="359" y="-6" type="curve" smooth="yes"/>
      <point x="544" y="-6"/>
      <point x="648" y="119"/>
      <point x="648" y="309" type="curve" smooth="yes"/>
      <point x="648" y="447"/>
      <point x="648" y="585"/>
      <point x="649" y="722" type="curve"/>
      <point x="562" y="722" type="line"/>
      <point x="562" y="579"/>
      <point x="563" y="435"/>
      <point x="563" y="292" type="curve" smooth="yes"/>
      <point x="563" y="163"/>
      <point x="498" y="76"/>
      <point x="375" y="76" type="curve" smooth="yes"/>
      <point x="236" y="76"/>
      <point x="163" y="175"/>
      <point x="164" y="321" type="curve" smooth="yes"/>
      <point x="164" y="722" type="line"/>
    </contour>
  </outline>
</glyph>
<glyph name="V" format="1">
  <advance width="669"/>
  <unicode hex="0056"/>
  <outline>
    <contour>
      <point x="647" y="722" type="line"/>
      <point x="560" y="722" type="line"/>
      <point x="348" y="114" type="line"/>
      <point x="141" y="722" type="line"/>
      <point x="55" y="722" type="line"/>
      <point x="308" y="0" type="line"/>
      <point x="394" y="0" type="line"/>
    </contour>
  </outline>
</glyph>
<glyph name="W" format="1">
  <advance width="966"/>
  <unicode hex="0057"/>
  <outline>
    <contour>
      <point x="921" y="722" type="line"/>
      <point x="835" y="722" type="line"/>
      <point x="674" y="132" type="line"/>
      <point x="542" y="722" type="line"/>
      <point x="459" y="722" type="line"/>
      <point x="317" y="128" type="line"/>
      <point x="140" y="722" type="line"/>
      <point x="54" y="722" type="line"/>
      <point x="286" y="0" type="line"/>
      <point x="368" y="0" type="line"/>
      <point x="509" y="584" type="line"/>
      <point x="638" y="0" type="line"/>
      <point x="721" y="0" type="line"/>
    </contour>
  </outline>
</glyph>
<glyph name="X" format="1">
  <advance width="694"/>
  <unicode hex="0058"/>
  <outline>
    <contour>
      <point x="78" y="722" type="line"/>
      <point x="308" y="369" type="line"/>
      <point x="36" y="0" type="line"/>
      <point x="126" y="0" type="line"/>
      <point x="351" y="303" type="line"/>
      <point x="548" y="0" type="line"/>
      <point x="636" y="0" type="line"/>
      <point x="395" y="370" type="line"/>
      <point x="657" y="722" type="line"/>
      <point x="566" y="722" type="line"/>
      <point x="350" y="440" type="line"/>
      <point x="167" y="722" type="line"/>
    </contour>
  </outline>
</glyph>
<glyph name="Y" format="1">
  <advance width="626"/>
  <unicode hex="0059"/>
  <outline>
    <contour>
      <point x="522" y="722" type="line"/>
      <point x="328" y="439" type="line"/>
      <point x="133" y="722" type="line"/>
      <point x="45" y="722" type="line"/>
      <point x="280" y="368" type="line"/>
      <point x="280" y="0" type="line"/>
      <point x="366" y="0" type="line"/>
      <point x="366" y="368" type="line"/>
      <point x="613" y="722" type="line"/>
    </contour>
  </outline>
</glyph>
<glyph name="Z" format="1">
  <advance width="671"/>
  <unicode hex="005A"/>
  <outline>
    <contour>
      <point x="109" y="629" type="line"/>
      <point x="510" y="629" type="line"/>
      <point x="44" y="86" type="line"/>
      <point x="44" y="4" type="line"/>
      <point x="631" y="4" type="line"/>
      <point x="631" y="86" type="line"/>
      <point x="140" y="86" type="line"/>
      <point x="606" y="629" type="line"/>
      <point x="606" y="711" type="line"/>
      <point x="109" y="711" type="line"/>
    </contour>
  </outline>
</glyph>
<glyph name="underscore" format="1">
  <advance width="717"/>
  <unicode hex="005F"/>
  <outline>
    <contour>
      <point x="31" y="-155" type="line"/>
      <point x="31" y="-241" type="line"/>
      <point x="692" y="-241" type="line"/>
      <point x="692" y="-155" type="line"/>
    </contour>
  </outline>
</glyph>
<glyph name="grave" format="1">
  <advance width="346"/>
  <unicode hex="0060"/>
  <outline>
    <contour>
      <point x="216" y="630" type="line"/>
      <point x="303" y="630" type="line"/>
      <point x="166" y="810" type="line"/>
      <point x="80" y="810" type="line"/>
    </contour>
  </outline>
</glyph>
<glyph name="a" format="1">
  <advance width="564"/>
  <unicode hex="0061"/>
  <outline>
    <contour>
      <point x="377" y="322" type="curve"/>
      <point x="224" y="321"/>
      <point x="86" y="308"/>
      <point x="59" y="168" type="curve" smooth="yes"/>
      <point x="57" y="157"/>
      <point x="56" y="146"/>
      <point x="56" y="136" type="curve" smooth="yes"/>
      <point x="56" y="51"/>
      <point x="132" y="-17"/>
      <point x="234" y="-17" type="curve" smooth="yes"/>
      <point x="290" y="-17"/>
      <point x="339" y="8"/>
      <point x="376" y="52" type="curve"/>
      <point x="376" y="36" type="line"/>
      <point x="376" y="0" type="line"/>
      <point x="462" y="0" type="line"/>
      <point x="462" y="116" type="line" smooth="yes"/>
      <point x="461" y="188"/>
      <point x="461" y="261"/>
      <point x="461" y="333" type="curve" smooth="yes"/>
      <point x="461" y="453"/>
      <point x="386" y="521"/>
      <point x="254" y="521" type="curve" smooth="yes"/>
      <point x="188" y="521"/>
      <point x="124" y="501"/>
      <point x="68" y="463" type="curve"/>
      <point x="110" y="404" type="line"/>
      <point x="145" y="432"/>
      <point x="189" y="447"/>
      <point x="233" y="447" type="curve" smooth="yes"/>
      <point x="323" y="447"/>
      <point x="372" y="398"/>
    </contour>
    <contour>
      <point x="139" y="144" type="curve" smooth="yes"/>
      <point x="139" y="155"/>
      <point x="141" y="167"/>
      <point x="145" y="179" type="curve" smooth="yes"/>
      <point x="168" y="247"/>
      <point x="223" y="259"/>
      <point x="291" y="259" type="curve" smooth="yes"/>
      <point x="318" y="259"/>
      <point x="347" y="257"/>
      <point x="377" y="256" type="curve"/>
      <point x="377" y="229"/>
      <point x="376" y="202"/>
      <point x="376" y="175" type="curve"/>
      <point x="349" y="103"/>
      <point x="311" y="51"/>
      <point x="247" y="51" type="curve" smooth="yes"/>
      <point x="183" y="51"/>
      <point x="139" y="92"/>
    </contour>
  </outline>
</glyph>
<glyph name="b" format="1">
  <advance width="637"/>
  <unicode hex="0062"/>
  <outline>
    <contour>
      <point x="319" y="-3" type="curve" smooth="yes"/>
      <point x="469" y="-3"/>
      <point x="582" y="120"/>
      <point x="582" y="274" type="curve" smooth="yes"/>
      <point x="582" y="420"/>
      <point x="488" y="518"/>
      <point x="339" y="518" type="curve" smooth="yes"/>
      <point x="276" y="518"/>
      <point x="215" y="499"/>
      <point x="166" y="463" type="curve"/>
      <point x="166" y="837" type="line"/>
      <point x="79" y="837" type="line"/>
      <point x="79" y="0" type="line"/>
      <point x="166" y="0" type="line"/>
      <point x="166" y="49" type="line"/>
      <point x="209" y="16"/>
      <point x="258" y="-3"/>
    </contour>
    <contour>
      <point x="330" y="451" type="curve" smooth="yes"/>
      <point x="430" y="451"/>
      <point x="496" y="371"/>
      <point x="496" y="261" type="curve" smooth="yes"/>
      <point x="496" y="157"/>
      <point x="431" y="59"/>
      <point x="315" y="59" type="curve" smooth="yes"/>
      <point x="254" y="59"/>
      <point x="197" y="91"/>
      <point x="166" y="144" type="curve"/>
      <point x="166" y="364" type="line"/>
      <point x="203" y="416"/>
      <point x="258" y="451"/>
    </contour>
  </outline>
</glyph>
<glyph name="c" format="1">
  <advance width="508"/>
  <unicode hex="0063"/>
  <outline>
    <contour>
      <point x="146" y="255" type="curve" smooth="yes"/>
      <point x="146" y="364"/>
      <point x="208" y="444"/>
      <point x="323" y="444" type="curve" smooth="yes"/>
      <point x="366" y="444"/>
      <point x="409" y="430"/>
      <point x="444" y="404" type="curve"/>
      <point x="495" y="462" type="line"/>
      <point x="444" y="498"/>
      <point x="383" y="517"/>
      <point x="320" y="517" type="curve" smooth="yes"/>
      <point x="164" y="517"/>
      <point x="58" y="407"/>
      <point x="58" y="256" type="curve" smooth="yes"/>
      <point x="58" y="100"/>
      <point x="153" y="-7"/>
      <point x="310" y="-7" type="curve" smooth="yes"/>
      <point x="382" y="-7"/>
      <point x="451" y="17"/>
      <point x="506" y="63" type="curve"/>
      <point x="459" y="125" type="line"/>
      <point x="423" y="89"/>
      <point x="374" y="70"/>
      <point x="324" y="70" type="curve" smooth="yes"/>
      <point x="213" y="70"/>
      <point x="146" y="150"/>
    </contour>
  </outline>
</glyph>
<glyph name="d" format="1">
  <advance width="635"/>
  <unicode hex="0064"/>
  <outline>
    <contour>
      <point x="336" y="452" type="curve" smooth="yes"/>
      <point x="385" y="452"/>
      <point x="432" y="435"/>
      <point x="470" y="402" type="curve"/>
      <point x="470" y="301" type="line"/>
      <point x="470" y="167" type="line"/>
      <point x="447" y="104"/>
      <point x="389" y="54"/>
      <point x="307" y="54" type="curve" smooth="yes"/>
      <point x="213" y="54"/>
      <point x="146" y="135"/>
      <point x="146" y="244" type="curve" smooth="yes"/>
      <point x="146" y="362"/>
      <point x="212" y="452"/>
    </contour>
    <contour>
      <point x="330" y="519" type="curve" smooth="yes"/>
      <point x="174" y="519"/>
      <point x="64" y="405"/>
      <point x="64" y="242" type="curve" smooth="yes"/>
      <point x="64" y="97"/>
      <point x="151" y="-6"/>
      <point x="288" y="-6" type="curve" smooth="yes"/>
      <point x="359" y="-6"/>
      <point x="422" y="21"/>
      <point x="469" y="66" type="curve"/>
      <point x="469" y="0" type="line"/>
      <point x="555" y="0" type="line"/>
      <point x="556" y="35"/>
      <point x="556" y="70"/>
      <point x="556" y="105" type="curve" smooth="yes"/>
      <point x="556" y="206"/>
      <point x="557" y="307"/>
      <point x="557" y="408" type="curve" smooth="yes"/>
      <point x="557" y="551"/>
      <point x="556" y="694"/>
      <point x="555" y="837" type="curve"/>
      <point x="468" y="837" type="line"/>
      <point x="469" y="720"/>
      <point x="470" y="603"/>
      <point x="470" y="486" type="curve"/>
      <point x="427" y="507"/>
      <point x="386" y="519"/>
    </contour>
  </outline>
</glyph>
<glyph name="e" format="1">
  <advance width="573"/>
  <unicode hex="0065"/>
  <outline>
    <contour>
      <point x="311" y="64" type="curve" smooth="yes"/>
      <point x="212" y="64"/>
      <point x="151" y="135"/>
      <point x="141" y="242" type="curve"/>
      <point x="511" y="242" type="line"/>
      <point x="513" y="257"/>
      <point x="515" y="272"/>
      <point x="515" y="288" type="curve" smooth="yes"/>
      <point x="515" y="428"/>
      <point x="428" y="520"/>
      <point x="291" y="520" type="curve" smooth="yes"/>
      <point x="152" y="520"/>
      <point x="56" y="407"/>
      <point x="56" y="254" type="curve" smooth="yes"/>
      <point x="56" y="95"/>
      <point x="144" y="-7"/>
      <point x="301" y="-7" type="curve" smooth="yes"/>
      <point x="377" y="-7"/>
      <point x="450" y="20"/>
      <point x="509" y="68" type="curve"/>
      <point x="462" y="127" type="line"/>
      <point x="423" y="87"/>
      <point x="372" y="64"/>
    </contour>
    <contour>
      <point x="429" y="304" type="curve"/>
      <point x="142" y="304" type="line"/>
      <point x="153" y="388"/>
      <point x="206" y="449"/>
      <point x="290" y="449" type="curve" smooth="yes"/>
      <point x="371" y="449"/>
      <point x="422" y="389"/>
    </contour>
  </outline>
</glyph>
<glyph name="f" format="1">
  <advance width="475"/>
  <unicode hex="0066"/>
  <outline>
    <contour>
      <point x="264" y="500" type="line"/>
      <point x="264" y="662" type="line" smooth="yes"/>
      <point x="264" y="732"/>
      <point x="322" y="781"/>
      <point x="383" y="781" type="curve" smooth="yes"/>
      <point x="405" y="781"/>
      <point x="428" y="774"/>
      <point x="449" y="760" type="curve"/>
      <point x="476" y="829" type="line"/>
      <point x="443" y="849"/>
      <point x="408" y="858"/>
      <point x="374" y="858" type="curve" smooth="yes"/>
      <point x="272" y="858"/>
      <point x="178" y="777"/>
      <point x="178" y="662" type="curve" smooth="yes"/>
      <point x="178" y="500" type="line"/>
      <point x="29" y="500" type="line"/>
      <point x="29" y="427" type="line"/>
      <point x="178" y="427" type="line"/>
      <point x="178" y="0" type="line"/>
      <point x="264" y="0" type="line"/>
      <point x="264" y="427" type="line"/>
      <point x="459" y="427" type="line"/>
      <point x="459" y="500" type="line"/>
    </contour>
  </outline>
</glyph>
<glyph name="g" format="1">
  <advance width="591"/>
  <unicode hex="0067"/>
  <outline>
    <contour>
      <point x="468" y="-110" type="curve" smooth="yes"/>
      <point x="468" y="-182"/>
      <point x="374" y="-227"/>
      <point x="276" y="-227" type="curve" smooth="yes"/>
      <point x="181" y="-227"/>
      <point x="110" y="-187"/>
      <point x="110" y="-104" type="curve" smooth="yes"/>
      <point x="110" y="-62"/>
      <point x="128" y="-27"/>
      <point x="155" y="-3" type="curve"/>
      <point x="192" y="-13"/>
      <point x="237" y="-14"/>
      <point x="289" y="-14" type="curve" smooth="yes"/>
      <point x="326" y="-14" type="line" smooth="yes"/>
      <point x="393" y="-14"/>
      <point x="468" y="-37"/>
    </contour>
    <contour>
      <point x="256" y="-304" type="curve" smooth="yes"/>
      <point x="415" y="-304"/>
      <point x="550" y="-212"/>
      <point x="550" y="-98" type="curve" smooth="yes"/>
      <point x="550" y="11"/>
      <point x="450" y="58"/>
      <point x="356" y="58" type="curve" smooth="yes"/>
      <point x="313" y="58"/>
      <point x="272" y="55"/>
      <point x="237" y="55" type="curve" smooth="yes"/>
      <point x="179" y="55"/>
      <point x="140" y="64"/>
      <point x="140" y="116" type="curve" smooth="yes"/>
      <point x="140" y="140"/>
      <point x="146" y="157"/>
      <point x="157" y="172" type="curve"/>
      <point x="191" y="151"/>
      <point x="232" y="139"/>
      <point x="276" y="139" type="curve" smooth="yes"/>
      <point x="393" y="139"/>
      <point x="489" y="227"/>
      <point x="489" y="333" type="curve" smooth="yes"/>
      <point x="489" y="372"/>
      <point x="478" y="402"/>
      <point x="462" y="427" type="curve"/>
      <point x="575" y="423" type="line"/>
      <point x="575" y="487" type="line"/>
      <point x="407" y="482" type="line"/>
      <point x="372" y="505"/>
      <point x="333" y="517"/>
      <point x="285" y="517" type="curve" smooth="yes"/>
      <point x="169" y="517"/>
      <point x="69" y="437"/>
      <point x="69" y="327" type="curve" smooth="yes"/>
      <point x="69" y="281"/>
      <point x="85" y="242"/>
      <point x="112" y="211" type="curve"/>
      <point x="86" y="185"/>
      <point x="70" y="149"/>
      <point x="70" y="110" type="curve" smooth="yes"/>
      <point x="70" y="68"/>
      <point x="84" y="39"/>
      <point x="105" y="21" type="curve"/>
      <point x="64" y="-16"/>
      <point x="39" y="-70"/>
      <point x="39" y="-127" type="curve" smooth="yes"/>
      <point x="39" y="-248"/>
      <point x="132" y="-304"/>
    </contour>
    <contour>
      <point x="280" y="447" type="curve" smooth="yes"/>
      <point x="349" y="447"/>
      <point x="408" y="397"/>
      <point x="408" y="330" type="curve" smooth="yes"/>
      <point x="409" y="263"/>
      <point x="350" y="211"/>
      <point x="281" y="211" type="curve" smooth="yes"/>
      <point x="211" y="211"/>
      <point x="154" y="264"/>
      <point x="154" y="330" type="curve" smooth="yes"/>
      <point x="154" y="397"/>
      <point x="211" y="447"/>
    </contour>
  </outline>
</glyph>
<glyph name="h" format="1">
  <advance width="588"/>
  <unicode hex="0068"/>
  <outline>
    <contour>
      <point x="428" y="337" type="curve" smooth="yes"/>
      <point x="428" y="0" type="line"/>
      <point x="515" y="0" type="line"/>
      <point x="514" y="115"/>
      <point x="514" y="229"/>
      <point x="514" y="344" type="curve" smooth="yes"/>
      <point x="514" y="447"/>
      <point x="438" y="523"/>
      <point x="322" y="523" type="curve" smooth="yes"/>
      <point x="265" y="523"/>
      <point x="210" y="501"/>
      <point x="165" y="465" type="curve"/>
      <point x="165" y="697" type="line"/>
      <point x="165" y="838" type="line"/>
      <point x="79" y="838" type="line"/>
      <point x="79" y="0" type="line"/>
      <point x="166" y="0" type="line"/>
      <point x="165" y="121"/>
      <point x="165" y="241"/>
      <point x="165" y="362" type="curve"/>
      <point x="200" y="416"/>
      <point x="251" y="456"/>
      <point x="312" y="456" type="curve" smooth="yes"/>
      <point x="382" y="456"/>
      <point x="428" y="404"/>
    </contour>
  </outline>
</glyph>
<glyph name="i" format="1">
  <advance width="266"/>
  <unicode hex="0069"/>
  <outline>
    <contour>
      <point x="89" y="657" type="line"/>
      <point x="179" y="657" type="line"/>
      <point x="179" y="781" type="line"/>
      <point x="89" y="781" type="line"/>
    </contour>
    <contour>
      <point x="92" y="0" type="line"/>
      <point x="178" y="0" type="line"/>
      <point x="177" y="511" type="line"/>
      <point x="91" y="511" type="line"/>
    </contour>
  </outline>
</glyph>
<glyph name="j" format="1">
  <advance width="366"/>
  <unicode hex="006A"/>
  <outline>
    <contour>
      <point x="161" y="654" type="line"/>
      <point x="252" y="654" type="line"/>
      <point x="252" y="784" type="line"/>
      <point x="161" y="784" type="line"/>
    </contour>
    <contour>
      <point x="39" y="-219" type="curve"/>
      <point x="39" y="-297" type="line"/>
      <point x="49" y="-299"/>
      <point x="60" y="-300"/>
      <point x="70" y="-300" type="curve" smooth="yes"/>
      <point x="167" y="-300"/>
      <point x="249" y="-220"/>
      <point x="249" y="-120" type="curve" smooth="yes"/>
      <point x="249" y="512" type="line"/>
      <point x="163" y="512" type="line"/>
      <point x="163" y="-120" type="line" smooth="yes"/>
      <point x="163" y="-177"/>
      <point x="116" y="-221"/>
      <point x="61" y="-221" type="curve" smooth="yes"/>
      <point x="54" y="-221"/>
      <point x="47" y="-221"/>
    </contour>
  </outline>
</glyph>
<glyph name="k" format="1">
  <advance width="616"/>
  <unicode hex="006B"/>
  <outline>
    <contour>
      <point x="110" y="0" type="line"/>
      <point x="197" y="0" type="line"/>
      <point x="197" y="241" type="line"/>
      <point x="476" y="0" type="line"/>
      <point x="582" y="0" type="line"/>
      <point x="267" y="280" type="line"/>
      <point x="558" y="511" type="line"/>
      <point x="450" y="511" type="line"/>
      <point x="197" y="313" type="line"/>
      <point x="197" y="810" type="line"/>
      <point x="110" y="810" type="line"/>
    </contour>
  </outline>
</glyph>
<glyph name="l" format="1">
  <advance width="285"/>
  <unicode hex="006C"/>
  <outline>
    <contour>
      <point x="101" y="1" type="line"/>
      <point x="187" y="1" type="line"/>
      <point x="187" y="837" type="line"/>
      <point x="100" y="837" type="line"/>
    </contour>
  </outline>
</glyph>
<glyph name="m" format="1">
  <advance width="940"/>
  <unicode hex="006D"/>
  <outline>
    <contour>
      <point x="431" y="354" type="curve" smooth="yes"/>
      <point x="431" y="236"/>
      <point x="430" y="119"/>
      <point x="430" y="1" type="curve"/>
      <point x="516" y="1" type="line"/>
      <point x="517" y="118"/>
      <point x="517" y="235"/>
      <point x="517" y="352" type="curve" smooth="yes"/>
      <point x="517" y="362" type="line"/>
      <point x="545" y="420"/>
      <point x="591" y="460"/>
      <point x="652" y="460" type="curve" smooth="yes"/>
      <point x="727" y="460"/>
      <point x="771" y="408"/>
      <point x="771" y="338" type="curve" smooth="yes"/>
      <point x="771" y="226"/>
      <point x="771" y="113"/>
      <point x="772" y="1" type="curve"/>
      <point x="858" y="1" type="line"/>
      <point x="858" y="342" type="line" smooth="yes"/>
      <point x="858" y="447"/>
      <point x="782" y="528"/>
      <point x="661" y="528" type="curve" smooth="yes"/>
      <point x="594" y="528"/>
      <point x="534" y="497"/>
      <point x="491" y="444" type="curve"/>
      <point x="461" y="490"/>
      <point x="399" y="526"/>
      <point x="323" y="526" type="curve" smooth="yes"/>
      <point x="267" y="526"/>
      <point x="219" y="503"/>
      <point x="175" y="466" type="curve"/>
      <point x="175" y="511" type="line"/>
      <point x="89" y="511" type="line"/>
      <point x="89" y="413" type="line"/>
      <point x="88" y="260"/>
      <point x="88" y="153"/>
      <point x="87" y="0" type="curve"/>
      <point x="174" y="0" type="line"/>
      <point x="175" y="140"/>
      <point x="175" y="242"/>
      <point x="175" y="375" type="curve"/>
      <point x="215" y="425"/>
      <point x="254" y="461"/>
      <point x="313" y="461" type="curve" smooth="yes"/>
      <point x="384" y="461"/>
      <point x="431" y="418"/>
    </contour>
  </outline>
</glyph>
<glyph name="n" format="1">
  <advance width="600"/>
  <unicode hex="006E"/>
  <outline>
    <contour>
      <point x="341" y="521" type="curve" smooth="yes"/>
      <point x="277" y="521"/>
      <point x="216" y="497"/>
      <point x="168" y="455" type="curve"/>
      <point x="168" y="511" type="line"/>
      <point x="81" y="511" type="line"/>
      <point x="81" y="413" type="line" smooth="yes"/>
      <point x="81" y="275"/>
      <point x="81" y="138"/>
      <point x="79" y="0" type="curve"/>
      <point x="166" y="0" type="line"/>
      <point x="167" y="114"/>
      <point x="168" y="226"/>
      <point x="168" y="340" type="curve"/>
      <point x="203" y="398"/>
      <point x="258" y="447"/>
      <point x="332" y="447" type="curve" smooth="yes"/>
      <point x="398" y="447"/>
      <point x="440" y="402"/>
      <point x="440" y="332" type="curve" smooth="yes"/>
      <point x="440" y="0" type="line"/>
      <point x="526" y="0" type="line"/>
      <point x="526" y="338" type="line" smooth="yes"/>
      <point x="526" y="447"/>
      <point x="462" y="521"/>
    </contour>
  </outline>
</glyph>
<glyph name="o" format="1">
  <advance width="649"/>
  <unicode hex="006F"/>
  <outline>
    <contour>
      <point x="325" y="441" type="curve" smooth="yes"/>
      <point x="428" y="441"/>
      <point x="496" y="364"/>
      <point x="496" y="255" type="curve" smooth="yes"/>
      <point x="496" y="144"/>
      <point x="434" y="67"/>
      <point x="321" y="67" type="curve" smooth="yes"/>
      <point x="217" y="67"/>
      <point x="150" y="145"/>
      <point x="150" y="258" type="curve" smooth="yes"/>
      <point x="150" y="365"/>
      <point x="211" y="441"/>
    </contour>
    <contour>
      <point x="326" y="-8" type="curve" smooth="yes"/>
      <point x="477" y="-8"/>
      <point x="579" y="99"/>
      <point x="579" y="257" type="curve" smooth="yes"/>
      <point x="579" y="413"/>
      <point x="483" y="518"/>
      <point x="321" y="518" type="curve" smooth="yes"/>
      <point x="167" y="518"/>
      <point x="65" y="410"/>
      <point x="65" y="255" type="curve" smooth="yes"/>
      <point x="65" y="97"/>
      <point x="163" y="-8"/>
    </contour>
  </outline>
</glyph>
<glyph name="p" format="1">
  <advance width="644"/>
  <unicode hex="0070"/>
  <outline>
    <contour>
      <point x="587" y="284" type="curve" smooth="yes"/>
      <point x="587" y="413"/>
      <point x="492" y="519"/>
      <point x="348" y="519" type="curve" smooth="yes"/>
      <point x="281" y="519"/>
      <point x="218" y="494"/>
      <point x="169" y="451" type="curve"/>
      <point x="169" y="471"/>
      <point x="168" y="491"/>
      <point x="168" y="511" type="curve"/>
      <point x="82" y="511" type="line"/>
      <point x="83" y="465"/>
      <point x="83" y="419"/>
      <point x="83" y="373" type="curve" smooth="yes"/>
      <point x="84" y="288"/>
      <point x="84" y="204"/>
      <point x="84" y="119" type="curve" smooth="yes"/>
      <point x="84" y="-18"/>
      <point x="83" y="-155"/>
      <point x="82" y="-292" type="curve"/>
      <point x="168" y="-292" type="line"/>
      <point x="169" y="-188"/>
      <point x="170" y="-83"/>
      <point x="170" y="21" type="curve"/>
      <point x="208" y="3"/>
      <point x="249" y="-6"/>
      <point x="291" y="-6" type="curve" smooth="yes"/>
      <point x="450" y="-6"/>
      <point x="587" y="119"/>
    </contour>
    <contour>
      <point x="342" y="458" type="curve" smooth="yes"/>
      <point x="434" y="458"/>
      <point x="502" y="381"/>
      <point x="502" y="284" type="curve" smooth="yes"/>
      <point x="502" y="163"/>
      <point x="412" y="66"/>
      <point x="291" y="66" type="curve" smooth="yes"/>
      <point x="248" y="66"/>
      <point x="206" y="80"/>
      <point x="171" y="107" type="curve"/>
      <point x="171" y="130" type="line" smooth="yes"/>
      <point x="171" y="199"/>
      <point x="170" y="268"/>
      <point x="170" y="338" type="curve"/>
      <point x="204" y="403"/>
      <point x="258" y="458"/>
    </contour>
  </outline>
</glyph>
<glyph name="q" format="1">
  <advance width="673"/>
  <unicode hex="0071"/>
  <outline>
    <contour>
      <point x="328" y="515" type="curve" smooth="yes"/>
      <point x="184" y="515"/>
      <point x="64" y="399"/>
      <point x="64" y="256" type="curve" smooth="yes"/>
      <point x="64" y="99"/>
      <point x="197" y="-12"/>
      <point x="362" y="-12" type="curve" smooth="yes"/>
      <point x="404" y="-12"/>
      <point x="445" y="-4"/>
      <point x="484" y="11" type="curve"/>
      <point x="484" y="-292" type="line"/>
      <point x="571" y="-292" type="line"/>
      <point x="571" y="511" type="line"/>
      <point x="484" y="511" type="line"/>
      <point x="484" y="463" type="line"/>
      <point x="442" y="496"/>
      <point x="394" y="515"/>
    </contour>
    <contour>
      <point x="148" y="260" type="curve" smooth="yes"/>
      <point x="148" y="361"/>
      <point x="232" y="449"/>
      <point x="341" y="449" type="curve" smooth="yes"/>
      <point x="395" y="449"/>
      <point x="447" y="427"/>
      <point x="484" y="387" type="curve"/>
      <point x="484" y="88" type="line"/>
      <point x="448" y="69"/>
      <point x="409" y="59"/>
      <point x="369" y="59" type="curve" smooth="yes"/>
      <point x="250" y="59"/>
      <point x="148" y="144"/>
    </contour>
  </outline>
</glyph>
<glyph name="r" format="1">
  <advance width="450"/>
  <unicode hex="0072"/>
  <outline>
    <contour>
      <point x="386" y="438" type="curve" smooth="yes"/>
      <point x="397" y="438"/>
      <point x="408" y="437"/>
      <point x="419" y="436" type="curve"/>
      <point x="433" y="517" type="line"/>
      <point x="423" y="518"/>
      <point x="412" y="518"/>
      <point x="402" y="518" type="curve" smooth="yes"/>
      <point x="309" y="518"/>
      <point x="234" y="486"/>
      <point x="178" y="443" type="curve"/>
      <point x="178" y="511" type="line"/>
      <point x="91" y="511" type="line"/>
      <point x="91" y="0" type="line"/>
      <point x="178" y="0" type="line"/>
      <point x="178" y="338" type="line"/>
      <point x="224" y="396"/>
      <point x="291" y="438"/>
    </contour>
  </outline>
</glyph>
<glyph name="s" format="1">
  <advance width="496"/>
  <unicode hex="0073"/>
  <outline>
    <contour>
      <point x="257" y="446" type="curve" smooth="yes"/>
      <point x="307" y="446"/>
      <point x="351" y="433"/>
      <point x="392" y="405" type="curve"/>
      <point x="425" y="470" type="line"/>
      <point x="375" y="501"/>
      <point x="326" y="518"/>
      <point x="261" y="518" type="curve" smooth="yes"/>
      <point x="157" y="518"/>
      <point x="72" y="459"/>
      <point x="72" y="373" type="curve" smooth="yes"/>
      <point x="72" y="279"/>
      <point x="151" y="244"/>
      <point x="233" y="222" type="curve" smooth="yes"/>
      <point x="295" y="205"/>
      <point x="365" y="193"/>
      <point x="362" y="134" type="curve" smooth="yes"/>
      <point x="358" y="79"/>
      <point x="295" y="69"/>
      <point x="233" y="69" type="curve" smooth="yes"/>
      <point x="170" y="69"/>
      <point x="115" y="84"/>
      <point x="61" y="116" type="curve"/>
      <point x="23" y="50" type="line"/>
      <point x="84" y="13"/>
      <point x="147" y="-6"/>
      <point x="219" y="-6" type="curve" smooth="yes"/>
      <point x="338" y="-6"/>
      <point x="446" y="44"/>
      <point x="446" y="142" type="curve" smooth="yes"/>
      <point x="446" y="230"/>
      <point x="368" y="267"/>
      <point x="287" y="288" type="curve" smooth="yes"/>
      <point x="226" y="305"/>
      <point x="153" y="311"/>
      <point x="153" y="374" type="curve" smooth="yes"/>
      <point x="153" y="422"/>
      <point x="202" y="446"/>
    </contour>
  </outline>
</glyph>
<glyph name="t" format="1">
  <advance width="445"/>
  <unicode hex="0074"/>
  <outline>
    <contour>
      <point x="317" y="-9" type="curve" smooth="yes"/>
      <point x="352" y="-9"/>
      <point x="387" y="1"/>
      <point x="417" y="21" type="curve"/>
      <point x="391" y="85" type="line"/>
      <point x="376" y="71"/>
      <point x="357" y="65"/>
      <point x="338" y="65" type="curve" smooth="yes"/>
      <point x="269" y="65"/>
      <point x="238" y="131"/>
      <point x="238" y="192" type="curve" smooth="yes"/>
      <point x="238" y="432" type="line"/>
      <point x="425" y="432" type="line"/>
      <point x="425" y="505" type="line"/>
      <point x="238" y="505" type="line"/>
      <point x="238" y="642" type="line"/>
      <point x="153" y="590" type="line"/>
      <point x="153" y="505" type="line"/>
      <point x="26" y="505" type="line"/>
      <point x="27" y="431" type="line"/>
      <point x="152" y="431" type="line"/>
      <point x="152" y="142" type="line" smooth="yes"/>
      <point x="152" y="59"/>
      <point x="223" y="-9"/>
    </contour>
  </outline>
</glyph>
<glyph name="u" format="1">
  <advance width="599"/>
  <unicode hex="0075"/>
  <outline>
    <contour>
      <point x="170" y="181" type="curve" smooth="yes"/>
      <point x="171" y="511" type="line"/>
      <point x="84" y="511" type="line"/>
      <point x="85" y="154" type="line" smooth="yes"/>
      <point x="85" y="65"/>
      <point x="160" y="-10"/>
      <point x="262" y="-10" type="curve" smooth="yes"/>
      <point x="328" y="-10"/>
      <point x="388" y="23"/>
      <point x="437" y="73" type="curve"/>
      <point x="437" y="0" type="line"/>
      <point x="524" y="0" type="line"/>
      <point x="524" y="511" type="line"/>
      <point x="437" y="511" type="line"/>
      <point x="437" y="184" type="line"/>
      <point x="401" y="121"/>
      <point x="353" y="64"/>
      <point x="285" y="64" type="curve" smooth="yes"/>
      <point x="219" y="64"/>
      <point x="170" y="118"/>
    </contour>
  </outline>
</glyph>
<glyph name="v" format="1">
  <advance width="573"/>
  <unicode hex="0076"/>
  <outline>
    <contour>
      <point x="36" y="511" type="line"/>
      <point x="242" y="0" type="line"/>
      <point x="324" y="0" type="line"/>
      <point x="535" y="511" type="line"/>
      <point x="449" y="511" type="line"/>
      <point x="279" y="92" type="line"/>
      <point x="122" y="511" type="line"/>
    </contour>
  </outline>
</glyph>
<glyph name="w" format="1">
  <advance width="934"/>
  <unicode hex="0077"/>
  <outline>
    <contour>
      <point x="54" y="511" type="line"/>
      <point x="249" y="0" type="line"/>
      <point x="335" y="0" type="line"/>
      <point x="465" y="386" type="line"/>
      <point x="588" y="0" type="line"/>
      <point x="674" y="0" type="line"/>
      <point x="897" y="511" type="line"/>
      <point x="811" y="511" type="line"/>
      <point x="628" y="91" type="line"/>
      <point x="507" y="511" type="line"/>
      <point x="425" y="511" type="line"/>
      <point x="281" y="93" type="line"/>
      <point x="140" y="511" type="line"/>
    </contour>
  </outline>
</glyph>
<glyph name="x" format="1">
  <advance width="578"/>
  <unicode hex="0078"/>
  <outline>
    <contour>
      <point x="87" y="511" type="line"/>
      <point x="254" y="265" type="line"/>
      <point x="48" y="0" type="line"/>
      <point x="134" y="0" type="line"/>
      <point x="297" y="203" type="line"/>
      <point x="435" y="0" type="line"/>
      <point x="521" y="0" type="line"/>
      <point x="340" y="267" type="line"/>
      <point x="525" y="511" type="line"/>
      <point x="439" y="511" type="line"/>
      <point x="296" y="331" type="line"/>
      <point x="174" y="511" type="line"/>
    </contour>
  </outline>
</glyph>
<glyph name="y" format="1">
  <advance width="582"/>
  <unicode hex="0079"/>
  <outline>
    <contour>
      <point x="44" y="511" type="line"/>
      <point x="243" y="79" type="line"/>
      <point x="61" y="-292" type="line"/>
      <point x="152" y="-292" type="line"/>
      <point x="546" y="511" type="line"/>
      <point x="455" y="511" type="line"/>
      <point x="285" y="165" type="line"/>
      <point x="131" y="511" type="line"/>
    </contour>
  </outline>
</glyph>
<glyph name="z" format="1">
  <advance width="426"/>
  <unicode hex="007A"/>
  <outline>
    <contour>
      <point x="40" y="423" type="line"/>
      <point x="323" y="423" type="line"/>
      <point x="-3" y="78" type="line"/>
      <point x="-3" y="0" type="line"/>
      <point x="428" y="0" type="line"/>
      <point x="428" y="78" type="line"/>
      <point x="92" y="78" type="line"/>
      <point x="418" y="423" type="line"/>
      <point x="418" y="501" type="line"/>
      <point x="40" y="501" type="line"/>
    </contour>
  </outline>
</glyph>
<glyph name="bar" format="1">
  <advance width="88"/>
  <unicode hex="007C"/>
  <outline>
    <contour>
      <point x="3" y="-411" type="line"/>
      <point x="90" y="-411" type="line"/>
      <point x="90" y="-364" type="line"/>
      <point x="3" y="-364" type="line"/>
    </contour>
    <contour>
      <point x="3" y="888" type="line"/>
      <point x="90" y="888" type="line"/>
      <point x="90" y="934" type="line"/>
      <point x="3" y="934" type="line"/>
    </contour>
    <contour>
      <point x="3" y="812" type="line"/>
      <point x="3" y="786" type="line"/>
      <point x="90" y="786" type="line"/>
      <point x="90" y="812" type="line"/>
    </contour>
    <contour>
      <point x="3" y="512" type="line"/>
      <point x="90" y="512" type="line"/>
      <point x="90" y="754" type="line"/>
      <point x="3" y="754" type="line"/>
    </contour>
    <contour>
      <point x="3" y="1" type="line"/>
      <point x="90" y="1" type="line"/>
      <point x="90" y="510" type="line"/>
      <point x="3" y="510" type="line"/>
    </contour>
    <contour>
      <point x="3" y="-292" type="line"/>
      <point x="90" y="-292" type="line"/>
      <point x="90" y="-1" type="line"/>
      <point x="3" y="-1" type="line"/>
    </contour>
  </outline>
</glyph>
